<svg width="490" height="560" viewBox="720 250 490 560" fill="none" xmlns="http://www.w3.org/2000/svg">
<path d="M976.46 691.87H1001.22V716.604H976.46V691.87Z" fill="#1F1F1F"/>
<path d="M976.46 722.787H1001.22V747.52H976.46V722.787Z" fill="#1F1F1F"/>
<path d="M1007.41 691.87H1032.18V716.604H1007.41V691.87Z" fill="#1F1F1F"/>
<path d="M1007.41 722.787H1032.18V747.52H1007.41V722.787Z" fill="#1F1F1F"/>
<path fill-rule="evenodd" clip-rule="evenodd" d="M845.339 283.48C868.01 281.107 904.835 287.901 926.089 295.887C936.039 299.626 956.006 308.574 956.006 308.574L955.677 371.913C955.603 371.76 931.92 322.673 898.354 303.664C840.141 270.699 746.297 298.385 767.736 378.705C776.385 404.493 800.052 417.903 822.695 430.185C870.587 456.161 941.766 472.217 961.658 529.667C970.402 554.919 965.822 582.793 954.178 605.989L1002 574.639C1020.48 585.655 1043.62 601.359 1061.99 613.383L1138.24 662.666C1138.82 629.81 1138.34 595.375 1138.35 562.395L1138.34 525.085C1138.33 512.798 1139.02 499.355 1136.12 487.486C1133.22 475.649 1128.37 472.429 1118.71 466.614C1139.66 465.661 1171.96 465.817 1193 466.605C1176.54 475.48 1173.86 483.982 1173.2 502.653C1172.54 520.978 1172.91 539.467 1172.92 557.813L1172.92 727.924C1172.92 743.352 1172.33 756.842 1174.29 772.196C1176.36 788.49 1188.97 791.767 1190.08 795.092C1187.85 796.576 1126.67 795.846 1118.69 795.624C1123.12 792.778 1124.74 792.598 1129.12 788.569C1141.61 777.078 1138.39 748.448 1138.31 731.511L1138.38 687.546C1123.33 677.355 1106.77 667.284 1091.34 657.451L1002.07 600.492C970.346 618.71 939.126 641.223 907.572 660.114C894.733 667.801 879.734 677.033 867.72 685.665C867.119 706.024 867.853 726.737 867.509 747.129C867.329 757.768 867.478 767.893 870.518 778.18C873.602 788.616 878.984 790.892 887.931 795.427C880.807 796.075 870.775 795.862 863.555 795.873C849.692 795.913 835.828 795.852 821.966 795.692C825.081 793.719 829.447 791.097 832.078 788.492C840.674 779.978 839.976 764.939 840.115 753.79C840.21 746.189 840.131 738.801 840.13 731.341L839.996 654.702C794.408 650 766.702 639.592 728.083 614.089C727.905 600.858 728.069 574.09 728.069 574.002L728.653 543.276C728.688 543.365 733.324 555.08 735.382 560.019C739.356 569.384 744.251 578.332 749.993 586.732C772.723 619.712 800.354 639.379 840.096 646.782L840.146 613.834L867.636 613.885C867.53 624.686 867.627 635.486 867.924 646.283C887.016 643.078 903.223 638.123 916.454 623.068C928.189 609.478 934.05 591.793 932.75 573.892C929.585 530.442 889.291 510.714 854.145 495.281L816.298 478.658C797.826 470.33 780.67 461.436 765.091 448.377C726.474 416.006 722.844 359.783 756.144 322.127C779.406 295.823 811.382 285.864 845.339 283.48ZM884.828 651.058C879.154 652.26 873.452 653.331 867.728 654.268C867.699 656.395 867.423 662.104 868.044 663.755L868.898 664.069C871.321 662.373 885.231 652.958 886.243 651.26L884.828 651.058Z" fill="#1F1F1F"/>
</svg>
