<svg width="540" height="700" viewBox="700 180 540 700" fill="none" xmlns="http://www.w3.org/2000/svg">
<path d="M1139.57 865.714V861.173L1139.96 861.564H1135.48C1134.38 861.564 1133.44 861.375 1132.66 860.996C1131.89 860.618 1131.3 860.083 1130.88 859.391C1130.48 858.687 1130.27 857.845 1130.27 856.866C1130.27 855.822 1130.5 854.941 1130.94 854.224C1131.38 853.493 1132.01 852.945 1132.82 852.579C1133.64 852.201 1134.59 852.012 1135.68 852.012H1141V865.714H1139.57ZM1130.27 865.714L1133.64 860.898H1135.13L1131.82 865.714H1130.27ZM1139.57 860.761V852.853L1139.96 853.264H1135.73C1134.46 853.264 1133.46 853.571 1132.76 854.184C1132.07 854.785 1131.72 855.666 1131.72 856.827C1131.72 857.949 1132.05 858.817 1132.7 859.43C1133.35 860.031 1134.32 860.331 1135.6 860.331H1139.96L1139.57 860.761Z" fill="#C9AC7A"/>
<path d="M1113.9 865.714V852.873L1114.29 853.264H1109.08V852.012H1120.14V853.264H1114.95L1115.33 852.873V865.714H1113.9Z" fill="#C9AC7A"/>
<path d="M1093 865.714V852.873L1093.39 853.264H1088.18V852.012H1099.24V853.264H1094.06L1094.43 852.873V865.714H1093Z" fill="#C9AC7A"/>
<path d="M1064.94 865.714V852.012H1066.37V863.365L1075.14 852.012H1076.45V865.714H1075.02V854.38L1066.25 865.714H1064.94Z" fill="#C9AC7A"/>
<path d="M1051.67 865.714L1047.11 858.882L1048.34 858.178L1053.35 865.714H1051.67ZM1034.5 865.714L1039.51 858.178L1040.74 858.882L1036.18 865.714H1034.5ZM1039.45 859.019L1034.85 852.012H1036.42L1040.76 858.784L1039.45 859.019ZM1039.75 859.43V858.158H1043.66V859.43H1039.75ZM1043.23 865.714V852.012H1044.64V865.714H1043.23ZM1044.19 859.43V858.158H1048.1V859.43H1044.19ZM1048.4 859.019L1047.07 858.784L1051.43 852.012H1053L1048.4 859.019Z" fill="#C9AC7A"/>
<path d="M1006.76 865.714V861.173L1007.15 861.564H1002.67C1001.58 861.564 1000.64 861.375 999.853 860.996C999.083 860.618 998.489 860.083 998.072 859.391C997.667 858.687 997.465 857.845 997.465 856.866C997.465 855.822 997.687 854.941 998.13 854.224C998.574 853.493 999.2 852.945 1000.01 852.579C1000.83 852.201 1001.78 852.012 1002.87 852.012H1008.19V865.714H1006.76ZM997.465 865.714L1000.83 860.898H1002.32L999.011 865.714H997.465ZM1006.76 860.761V852.853L1007.15 853.264H1002.93C1001.65 853.264 1000.66 853.571 999.951 854.184C999.259 854.785 998.913 855.666 998.913 856.827C998.913 857.949 999.24 858.817 999.892 859.43C1000.54 860.031 1001.51 860.331 1002.79 860.331H1007.15L1006.76 860.761Z" fill="#C9AC7A"/>
<path d="M973.295 865.831C973.113 865.831 972.937 865.818 972.767 865.792C972.597 865.779 972.408 865.746 972.199 865.694L972.317 864.402C972.539 864.455 972.754 864.481 972.963 864.481C973.55 864.481 974.02 864.252 974.372 863.796C974.737 863.326 975.011 862.608 975.194 861.642C975.377 860.664 975.494 859.411 975.546 857.884L975.742 852.012H985.04V865.714H983.611V852.873L983.983 853.264H976.662L977.015 852.853L976.838 857.845C976.786 859.215 976.688 860.403 976.545 861.407C976.401 862.399 976.192 863.228 975.918 863.893C975.644 864.546 975.292 865.035 974.861 865.361C974.431 865.675 973.909 865.831 973.295 865.831Z" fill="#C9AC7A"/>
<path d="M949.555 864.755L947.97 864.461C948.492 864.487 948.923 864.298 949.262 863.893C949.614 863.489 949.882 862.921 950.064 862.19C950.26 861.46 950.404 860.605 950.495 859.626C950.586 858.647 950.652 857.59 950.691 856.455L950.847 852.012H960.086V865.029H958.657V853.264H952.1L951.983 856.592C951.943 857.623 951.878 858.615 951.787 859.567C951.709 860.507 951.578 861.355 951.395 862.112C951.226 862.856 950.991 863.463 950.691 863.933C950.404 864.402 950.025 864.676 949.555 864.755ZM947.461 868.787L947.481 864.461H962.142V868.787H960.791V865.714H948.831L948.812 868.787H947.461Z" fill="#C9AC7A"/>
<path d="M912.152 865.714V852.012H917.281C918.442 852.012 919.441 852.201 920.276 852.579C921.111 852.945 921.75 853.48 922.194 854.184C922.651 854.876 922.879 855.718 922.879 856.71C922.879 857.675 922.651 858.51 922.194 859.215C921.75 859.907 921.111 860.442 920.276 860.82C919.441 861.199 918.442 861.388 917.281 861.388H912.955L913.601 860.703V865.714H912.152ZM913.601 860.82L912.955 860.116H917.242C918.612 860.116 919.649 859.822 920.354 859.235C921.072 858.634 921.431 857.793 921.431 856.71C921.431 855.613 921.072 854.765 920.354 854.165C919.649 853.565 918.612 853.264 917.242 853.264H912.955L913.601 852.579V860.82Z" fill="#C9AC7A"/>
<path d="M896.91 865.714V852.012H898.339V865.714H896.91Z" fill="#C9AC7A"/>
<path d="M878.925 865.714V852.873L879.316 853.264H874.109V852.012H885.169V853.264H879.982L880.354 852.873V865.714H878.925Z" fill="#C9AC7A"/>
<path d="M859.27 865.828C858.239 865.828 857.286 865.658 856.412 865.319C855.538 864.966 854.781 864.477 854.141 863.851C853.502 863.224 852.999 862.487 852.634 861.639C852.282 860.79 852.105 859.864 852.105 858.859C852.105 857.854 852.282 856.928 852.634 856.08C852.999 855.231 853.502 854.494 854.141 853.868C854.794 853.241 855.557 852.758 856.431 852.419C857.306 852.067 858.258 851.891 859.289 851.891C860.281 851.891 861.214 852.06 862.088 852.4C862.963 852.726 863.7 853.222 864.3 853.887L863.38 854.807C862.819 854.233 862.199 853.822 861.521 853.574C860.842 853.313 860.111 853.183 859.328 853.183C858.506 853.183 857.743 853.326 857.038 853.613C856.334 853.887 855.72 854.285 855.198 854.807C854.676 855.316 854.265 855.916 853.965 856.608C853.678 857.287 853.534 858.037 853.534 858.859C853.534 859.681 853.678 860.438 853.965 861.13C854.265 861.808 854.676 862.409 855.198 862.931C855.72 863.44 856.334 863.838 857.038 864.125C857.743 864.399 858.506 864.536 859.328 864.536C860.111 864.536 860.842 864.405 861.521 864.144C862.199 863.883 862.819 863.466 863.38 862.891L864.3 863.811C863.7 864.477 862.963 864.979 862.088 865.319C861.214 865.658 860.275 865.828 859.27 865.828Z" fill="#C9AC7A"/>
<path d="M833.438 865.828C832.407 865.828 831.448 865.658 830.56 865.319C829.686 864.966 828.923 864.477 828.27 863.851C827.631 863.211 827.128 862.474 826.763 861.639C826.411 860.79 826.234 859.864 826.234 858.859C826.234 857.854 826.411 856.934 826.763 856.099C827.128 855.251 827.631 854.514 828.27 853.887C828.923 853.248 829.686 852.758 830.56 852.419C831.435 852.067 832.394 851.891 833.438 851.891C834.469 851.891 835.421 852.067 836.296 852.419C837.17 852.758 837.927 853.241 838.566 853.868C839.219 854.494 839.721 855.231 840.073 856.08C840.439 856.928 840.622 857.854 840.622 858.859C840.622 859.864 840.439 860.79 840.073 861.639C839.721 862.487 839.219 863.224 838.566 863.851C837.927 864.477 837.17 864.966 836.296 865.319C835.421 865.658 834.469 865.828 833.438 865.828ZM833.438 864.536C834.26 864.536 835.017 864.399 835.708 864.125C836.413 863.838 837.02 863.44 837.529 862.931C838.051 862.409 838.455 861.808 838.742 861.13C839.03 860.438 839.173 859.681 839.173 858.859C839.173 858.037 839.03 857.287 838.742 856.608C838.455 855.916 838.051 855.316 837.529 854.807C837.02 854.285 836.413 853.887 835.708 853.613C835.017 853.326 834.26 853.183 833.438 853.183C832.616 853.183 831.852 853.326 831.148 853.613C830.443 853.887 829.83 854.285 829.308 854.807C828.799 855.316 828.394 855.916 828.094 856.608C827.807 857.287 827.663 858.037 827.663 858.859C827.663 859.668 827.807 860.419 828.094 861.11C828.394 861.802 828.799 862.409 829.308 862.931C829.83 863.44 830.443 863.838 831.148 864.125C831.852 864.399 832.616 864.536 833.438 864.536Z" fill="#C9AC7A"/>
<path d="M804.352 865.714V852.012H809.48C810.641 852.012 811.64 852.201 812.475 852.579C813.31 852.945 813.95 853.48 814.393 854.184C814.85 854.876 815.078 855.718 815.078 856.71C815.078 857.675 814.85 858.51 814.393 859.215C813.95 859.907 813.31 860.442 812.475 860.82C811.64 861.199 810.641 861.388 809.48 861.388H805.154L805.8 860.703V865.714H804.352ZM805.8 860.82L805.154 860.116H809.441C810.811 860.116 811.849 859.822 812.553 859.235C813.271 858.634 813.63 857.793 813.63 856.71C813.63 855.613 813.271 854.765 812.553 854.165C811.849 853.565 810.811 853.264 809.441 853.264H805.154L805.8 852.579V860.82Z" fill="#C9AC7A"/>
<path d="M779 865.714V852.012H790.529V865.714H789.1V852.873L789.472 853.264H780.057L780.429 852.873V865.714H779Z" fill="#C9AC7A"/>
<path d="M1190.08 715.711V665.231H1170.32V658.066H1218V665.231H1198.24V715.711H1190.08Z" fill="#C9AC7A"/>
<path d="M1110.32 715.711V658.066H1118.56V715.711H1110.32Z" fill="#C9AC7A"/>
<path d="M1008.88 715.711V658.066H1031.36C1036.41 658.066 1040.72 658.862 1044.29 660.455C1047.86 662.047 1050.6 664.352 1052.52 667.372C1054.45 670.391 1055.41 673.987 1055.41 678.16C1055.41 682.332 1054.45 685.928 1052.52 688.947C1050.6 691.912 1047.86 694.218 1044.29 695.865C1040.72 697.457 1036.41 698.253 1031.36 698.253H1013.41L1017.11 694.382V715.711H1008.88ZM1017.11 695.206L1013.41 691.088H1031.11C1036.38 691.088 1040.36 689.963 1043.05 687.712C1045.8 685.461 1047.17 682.277 1047.17 678.16C1047.17 674.042 1045.8 670.858 1043.05 668.607C1040.36 666.356 1036.38 665.231 1031.11 665.231H1013.41L1017.11 661.113V695.206Z" fill="#C9AC7A"/>
<path d="M910.887 715.711V658.066H951.567V665.231H919.122V708.546H952.72V715.711H910.887ZM918.38 689.935V682.936H948.026V689.935H918.38Z" fill="#C9AC7A"/>
<path d="M842.577 715.711V658.066H850.812V715.711H842.577ZM801.238 715.711V658.066H809.473V715.711H801.238ZM808.65 690.018V682.853H843.319V690.018H808.65Z" fill="#C9AC7A"/>
<path d="M724.07 716.368C719.678 716.368 715.478 715.709 711.47 714.392C707.462 713.019 704.306 711.262 702 709.121L705.047 702.698C707.243 704.62 710.043 706.212 713.447 707.474C716.85 708.737 720.391 709.368 724.07 709.368C727.418 709.368 730.136 708.984 732.222 708.216C734.308 707.447 735.845 706.404 736.834 705.086C737.822 703.714 738.316 702.177 738.316 700.475C738.316 698.498 737.657 696.906 736.34 695.699C735.077 694.491 733.402 693.53 731.316 692.816C729.285 692.048 727.034 691.389 724.564 690.84C722.093 690.291 719.595 689.66 717.07 688.946C714.599 688.177 712.321 687.217 710.235 686.064C708.204 684.911 706.557 683.374 705.294 681.452C704.031 679.476 703.4 676.95 703.4 673.876C703.4 670.911 704.169 668.194 705.706 665.723C707.298 663.198 709.713 661.194 712.952 659.712C716.246 658.175 720.419 657.406 725.469 657.406C728.818 657.406 732.14 657.845 735.434 658.724C738.728 659.602 741.582 660.865 743.998 662.512L741.28 669.1C738.81 667.453 736.202 666.272 733.457 665.559C730.712 664.79 728.05 664.406 725.469 664.406C722.23 664.406 719.568 664.818 717.482 665.641C715.395 666.465 713.858 667.563 712.87 668.935C711.937 670.308 711.47 671.845 711.47 673.547C711.47 675.578 712.101 677.197 713.364 678.405C714.682 679.613 716.356 680.574 718.387 681.287C720.474 682.001 722.752 682.66 725.222 683.264C727.693 683.813 730.163 684.444 732.634 685.158C735.159 685.872 737.438 686.805 739.469 687.958C741.555 689.111 743.229 690.648 744.492 692.569C745.755 694.491 746.386 696.961 746.386 699.981C746.386 702.89 745.59 705.608 743.998 708.133C742.406 710.604 739.935 712.608 736.587 714.145C733.293 715.627 729.12 716.368 724.07 716.368Z" fill="#C9AC7A"/>
<rect x="733" y="767.969" width="65.4489" height="3.44468" fill="#C9AC7A"/>
<path d="M1059.02 786.253V753.117H1081.74V756.147H1062.52V783.223H1082.45V786.253H1059.02ZM1062.14 770.916V767.934H1079.66V770.916H1062.14Z" fill="#C9AC7A"/>
<path d="M1020.09 786.543C1017.63 786.543 1015.26 786.149 1012.99 785.36C1010.75 784.54 1009.02 783.498 1007.79 782.236L1009.16 779.538C1010.33 780.674 1011.89 781.636 1013.84 782.425C1015.83 783.183 1017.92 783.561 1020.09 783.561C1022.18 783.561 1023.86 783.309 1025.16 782.804C1026.48 782.267 1027.45 781.557 1028.05 780.674C1028.68 779.79 1028.99 778.812 1028.99 777.739C1028.99 776.445 1028.61 775.404 1027.86 774.615C1027.13 773.826 1026.17 773.21 1024.97 772.769C1023.77 772.295 1022.44 771.885 1020.99 771.538C1019.54 771.191 1018.09 770.828 1016.64 770.449C1015.19 770.039 1013.84 769.502 1012.61 768.84C1011.41 768.177 1010.44 767.309 1009.68 766.236C1008.95 765.132 1008.59 763.696 1008.59 761.928C1008.59 760.287 1009.02 758.788 1009.87 757.431C1010.75 756.043 1012.09 754.938 1013.89 754.118C1015.69 753.266 1017.99 752.84 1020.8 752.84C1022.66 752.84 1024.51 753.108 1026.34 753.645C1028.17 754.149 1029.75 754.86 1031.07 755.775L1029.89 758.568C1028.47 757.621 1026.96 756.927 1025.35 756.485C1023.77 756.043 1022.24 755.822 1020.76 755.822C1018.77 755.822 1017.13 756.09 1015.83 756.627C1014.54 757.163 1013.58 757.889 1012.94 758.804C1012.35 759.688 1012.05 760.698 1012.05 761.834C1012.05 763.128 1012.41 764.169 1013.13 764.958C1013.89 765.747 1014.87 766.362 1016.07 766.804C1017.3 767.246 1018.64 767.64 1020.09 767.988C1021.54 768.335 1022.98 768.713 1024.4 769.124C1025.85 769.534 1027.18 770.07 1028.38 770.733C1029.61 771.364 1030.59 772.216 1031.31 773.289C1032.07 774.362 1032.45 775.766 1032.45 777.502C1032.45 779.112 1032.01 780.611 1031.12 781.999C1030.24 783.356 1028.88 784.461 1027.05 785.313C1025.25 786.133 1022.93 786.543 1020.09 786.543Z" fill="#C9AC7A"/>
<path d="M967.887 786.537C963.658 786.537 960.329 785.322 957.899 782.892C955.469 780.462 954.254 776.864 954.254 772.099V753.117H957.757V771.957C957.757 775.87 958.64 778.758 960.408 780.62C962.175 782.482 964.668 783.413 967.887 783.413C971.137 783.413 973.646 782.482 975.413 780.62C977.181 778.758 978.064 775.87 978.064 771.957V753.117H981.472V772.099C981.472 776.864 980.257 780.462 977.827 782.892C975.429 785.322 972.116 786.537 967.887 786.537Z" fill="#C9AC7A"/>
<path d="M910.377 786.543C907.884 786.543 905.564 786.133 903.418 785.313C901.304 784.461 899.458 783.277 897.88 781.762C896.334 780.216 895.119 778.433 894.235 776.413C893.383 774.362 892.957 772.122 892.957 769.692C892.957 767.262 893.383 765.037 894.235 763.017C895.119 760.966 896.334 759.183 897.88 757.668C899.458 756.122 901.304 754.938 903.418 754.118C905.533 753.266 907.852 752.84 910.377 752.84C912.87 752.84 915.174 753.266 917.288 754.118C919.402 754.938 921.233 756.106 922.779 757.621C924.357 759.136 925.572 760.919 926.424 762.97C927.308 765.021 927.749 767.262 927.749 769.692C927.749 772.122 927.308 774.362 926.424 776.413C925.572 778.465 924.357 780.248 922.779 781.762C921.233 783.277 919.402 784.461 917.288 785.313C915.174 786.133 912.87 786.543 910.377 786.543ZM910.377 783.419C912.365 783.419 914.195 783.088 915.868 782.425C917.572 781.731 919.039 780.768 920.27 779.538C921.533 778.275 922.511 776.824 923.205 775.183C923.899 773.51 924.246 771.68 924.246 769.692C924.246 767.704 923.899 765.889 923.205 764.248C922.511 762.575 921.533 761.124 920.27 759.893C919.039 758.631 917.572 757.668 915.868 757.005C914.195 756.311 912.365 755.964 910.377 755.964C908.389 755.964 906.543 756.311 904.838 757.005C903.134 757.668 901.651 758.631 900.389 759.893C899.158 761.124 898.18 762.575 897.454 764.248C896.76 765.889 896.413 767.704 896.413 769.692C896.413 771.648 896.76 773.463 897.454 775.135C898.18 776.808 899.158 778.275 900.389 779.538C901.651 780.768 903.134 781.731 904.838 782.425C906.543 783.088 908.389 783.419 910.377 783.419Z" fill="#C9AC7A"/>
<path d="M862.686 786.253V753.117H866.141V786.253H862.686ZM838.449 786.253V753.117H841.952V786.253H838.449ZM841.573 770.963V767.886H863.017V770.963H841.573Z" fill="#C9AC7A"/>
<rect x="1122.45" y="767.969" width="65.4489" height="3.44468" fill="#C9AC7A"/>
<path d="M972.032 514.203H990.403V532.574H972.032V514.203Z" fill="#C9AC7A"/>
<path d="M972.032 537.167H990.403V555.539H972.032V537.167Z" fill="#C9AC7A"/>
<path d="M994.996 514.203H1013.37V532.574H994.996V514.203Z" fill="#C9AC7A"/>
<path d="M994.996 537.167H1013.37V555.539H994.996V537.167Z" fill="#C9AC7A"/>
<path fill-rule="evenodd" clip-rule="evenodd" d="M874.755 210.852C891.575 209.09 918.895 214.137 934.663 220.068C942.045 222.846 956.858 229.492 956.858 229.492L956.614 276.54C956.559 276.427 938.989 239.965 914.086 225.845C870.899 201.359 801.277 221.924 817.182 281.585C823.599 300.74 841.157 310.701 857.956 319.824C893.487 339.119 946.293 351.045 961.051 393.719C967.537 412.476 964.14 433.181 955.501 450.41L990.98 427.124C1004.69 435.306 1021.86 446.971 1035.48 455.902L1092.05 492.51C1092.48 468.105 1092.13 442.527 1092.14 418.029L1092.13 390.315C1092.12 381.189 1092.64 371.203 1090.48 362.387C1088.33 353.594 1084.73 351.203 1077.56 346.884C1093.11 346.176 1117.07 346.292 1132.68 346.877C1120.47 353.469 1118.48 359.784 1117.99 373.653C1117.5 387.265 1117.78 400.998 1117.78 414.626L1117.78 540.983C1117.78 552.443 1117.35 562.463 1118.8 573.868C1120.33 585.971 1129.69 588.405 1130.51 590.875C1128.86 591.978 1083.47 591.435 1077.55 591.27C1080.84 589.156 1082.04 589.022 1085.29 586.03C1094.55 577.494 1092.17 556.228 1092.1 543.648L1092.16 510.99C1080.99 503.421 1068.71 495.94 1057.26 488.636L991.035 446.327C967.496 459.86 944.334 476.582 920.925 490.614C911.4 496.324 900.273 503.181 891.36 509.593C890.914 524.716 891.458 540.101 891.203 555.249C891.069 563.151 891.18 570.672 893.435 578.313C895.723 586.065 899.716 587.756 906.354 591.124C901.068 591.605 893.626 591.447 888.269 591.455C877.985 591.485 867.699 591.44 857.415 591.32C859.726 589.855 862.965 587.908 864.917 585.973C871.294 579.648 870.777 568.477 870.88 560.196C870.95 554.55 870.892 549.062 870.891 543.521L870.791 486.594C836.971 483.101 816.416 475.37 787.765 456.427C787.633 446.599 787.754 426.716 787.755 426.651L788.187 403.827C788.214 403.894 791.653 412.596 793.18 416.264C796.128 423.22 799.759 429.867 804.019 436.107C820.883 460.604 841.382 475.213 870.865 480.711L870.902 456.238L891.297 456.276C891.219 464.298 891.29 472.321 891.511 480.34C905.675 477.96 917.699 474.279 927.514 463.097C936.221 453.002 940.569 439.866 939.604 426.569C937.256 394.294 907.363 379.641 881.288 368.177L853.21 355.829C839.506 349.644 826.778 343.037 815.22 333.337C786.571 309.292 783.878 267.53 808.583 239.559C825.84 220.021 849.563 212.623 874.755 210.852ZM904.052 483.887C899.842 484.78 895.612 485.575 891.365 486.272C891.344 487.852 891.139 492.092 891.6 493.318L892.233 493.552C894.031 492.292 904.351 485.299 905.101 484.037L904.052 483.887Z" fill="#C9AC7A"/>
</svg>
